<svg xmlns="http://www.w3.org/2000/svg" viewBox="0 0 512 512">
  <defs>
    <radialGradient id="sky" cx="50%" cy="20%" r="82%">
      <stop offset="0%" stop-color="#334a66"/>
      <stop offset="55%" stop-color="#111923"/>
      <stop offset="100%" stop-color="#080b10"/>
    </radialGradient>
    <linearGradient id="gold" x1="0" x2="1" y1="0" y2="1">
      <stop offset="0%" stop-color="#fff1a8"/>
      <stop offset="48%" stop-color="#d9ae55"/>
      <stop offset="100%" stop-color="#7f4f19"/>
    </linearGradient>
    <filter id="glow">
      <feGaussianBlur stdDeviation="8" result="blur"/>
      <feMerge>
        <feMergeNode in="blur"/>
        <feMergeNode in="SourceGraphic"/>
      </feMerge>
    </filter>
  </defs>
  <rect width="512" height="512" rx="112" fill="url(#sky)"/>
  <circle cx="368" cy="112" r="54" fill="#f6d66f" opacity=".9"/>
  <path d="M76 390h360v54H76z" fill="#070b10"/>
  <path d="M116 390V248h62v142M225 390V184h62v206M334 390V258h62v132" fill="#121923" stroke="#536073" stroke-width="10"/>
  <path d="M104 250h88M211 186h90M322 260h88" stroke="#d9ae55" stroke-width="18" stroke-linecap="round"/>
  <path d="M256 88l33 74 80 8-60 54 17 79-70-41-70 41 17-79-60-54 80-8z" fill="url(#gold)" filter="url(#glow)"/>
  <path d="M112 128c72 23 125 73 161 148 24-39 66-70 126-92-42 46-68 101-76 166-91-37-162-111-211-222z" fill="#ff7a24" opacity=".9"/>
</svg>
